<svg xmlns="http://www.w3.org/2000/svg" viewBox="0 0 500 500"><g id="freepik--background-simple--inject-2"><path d="M204.12,102.31c57.34-4.55,47,62.89,96.1,71.46C329.9,179,346,167,371.51,185.25c17.72,12.73,28.16,33.08,48,46.07,33.88,22.2,66.25,57.3,29.83,98.43-15.19,17.16-41.25,32.91-75.18,27.95-28.87-4.23-35.36-32.08-60.83-40.06-48.7-15.27-89.7,49.57-137.91,12.05-42.35-32.95-4.56-85.13-48.87-117.9C93.33,187.24,27,155.09,70.35,98.7c18.47-24,45.29-23.24,67.77-14.09C169.15,97.22,166.48,105.31,204.12,102.31Z" style="fill:#2196F3"></path><path d="M204.12,102.31c57.34-4.55,47,62.89,96.1,71.46C329.9,179,346,167,371.51,185.25c17.72,12.73,28.16,33.08,48,46.07,33.88,22.2,66.25,57.3,29.83,98.43-15.19,17.16-41.25,32.91-75.18,27.95-28.87-4.23-35.36-32.08-60.83-40.06-48.7-15.27-89.7,49.57-137.91,12.05-42.35-32.95-4.56-85.13-48.87-117.9C93.33,187.24,27,155.09,70.35,98.7c18.47-24,45.29-23.24,67.77-14.09C169.15,97.22,166.48,105.31,204.12,102.31Z" style="fill:#fff;opacity:0.9"></path></g><g id="freepik--Shadow--inject-2"><ellipse id="freepik--path--inject-2" cx="250" cy="416.24" rx="193.89" ry="11.32" style="fill:#f5f5f5"></ellipse></g><g id="freepik--Character--inject-2"><path d="M359.9,123.26a2.24,2.24,0,0,0,.62-1,2.16,2.16,0,1,0-4.2-.24,5.07,5.07,0,0,0-.87.13,4.22,4.22,0,0,0-2.91-2.41,2.84,2.84,0,0,0-.5-.06.08.08,0,0,1,0,0,4.65,4.65,0,0,0,.08-.73,4.58,4.58,0,0,0,1.92-7.15,4.53,4.53,0,0,0-2-8.67,5.69,5.69,0,0,0-4.38-5.35,4.31,4.31,0,0,0-.71-.09,4.23,4.23,0,0,0-3.15-3.14,4,4,0,0,0-1.65-.06A5.54,5.54,0,0,0,339,92.37a5.48,5.48,0,0,0-4.28.77,5.77,5.77,0,0,0-5.58.39,5.95,5.95,0,0,0-7,.48h0a4.48,4.48,0,0,0-5.37,3.35,4.28,4.28,0,0,0-.07,1.59,3,3,0,0,0-3.28,3.84,7.56,7.56,0,0,0-4.14,10.1,2.58,2.58,0,0,0-.55,1.11,2.69,2.69,0,0,0,1.25,2.92,5.6,5.6,0,0,0,1.52,7.89,3.25,3.25,0,0,0,2.72,4.19,4.2,4.2,0,0,0,3.32,4.73,3,3,0,0,0,4,2.53l0,.05a3.09,3.09,0,0,0,4.23.47,5.57,5.57,0,0,0,8.93-5,2.31,2.31,0,0,0,.14.19,4.22,4.22,0,0,0,6,.51l5-3.55a3.11,3.11,0,0,0,3.41-1.52,4.48,4.48,0,0,0,1.44.65,4.27,4.27,0,0,0,1.28.08c0,.15.08.3.13.45a3.18,3.18,0,0,0-.68,1.27,3.37,3.37,0,0,0,6.5,1.8v0a4.88,4.88,0,0,0,2.07-8.38Z" style="fill:#263238"></path><path d="M340.51,223s-6.17,44.47-11.68,73.67c-5.78,30.67-27.41,99.83-28.34,101.91l8.16,3.61s36.8-58.36,37.65-94.44c14.35-22,22.47-47,25-61.24,3.2-18-4-34.06-4-34.06Z" style="fill:#263238"></path><path d="M363.62,242.86c0,.07-.06.16-.1.25-3.11,6.51-4.75,18.12-4.75,29a90.7,90.7,0,0,0,.66,11.25,183.41,183.41,0,0,0,10.22-29.3Z" style="opacity:0.2"></path><path d="M295.43,407.29s2.25-1.62,5.06-8.75c0,0,5.05.39,8.16,3.61-2.22,4.8-4.8,9.1-4.8,9.1Z" style="fill:#7f3e3b"></path><path d="M305.65,408.49l-9.57-3.83a.94.94,0,0,0-.62,0c-1.38.44-8,.91-15.91-1.31l-1.33,1.41a92,92,0,0,0,23.59,11.34,2.26,2.26,0,0,0,3.07-1.65,27.67,27.67,0,0,1,1.3-4.69A1,1,0,0,0,305.65,408.49Z" style="fill:#2196F3"></path><path d="M294.77,185.52l-1.53-2.1a8.73,8.73,0,0,0-7.33-3.62h0a3.15,3.15,0,0,0-2.88,2.1l-1.24,3.56a3.13,3.13,0,0,0,1.69,3.91l1.68.75s5.59,3.26,10.36,2.77l.35-1.28A7.13,7.13,0,0,0,294.77,185.52Z" style="fill:#7f3e3b"></path><path d="M336.86,172.09l.05.79,0,.65,0,1.27c0,.83,0,1.64,0,2.45-.06,1.63-.22,3.24-.43,4.84a49,49,0,0,1-2.26,9.52,39.15,39.15,0,0,1-11,16.84l-.48.43-.24.21-.12.11-.3.24a9.13,9.13,0,0,1-3.09,1.63,10.43,10.43,0,0,1-5.1.17,19,19,0,0,1-5.7-2.37,47.68,47.68,0,0,1-7.54-5.84c-2.21-2.06-4.26-4.18-6.21-6.39s-3.77-4.43-5.52-6.87a3.55,3.55,0,0,1,5-4.91l.08.06c4.4,3.31,8.87,6.75,13.32,9.66a45,45,0,0,0,6.49,3.71,5.82,5.82,0,0,0,2.21.63c.08,0-.1-.15-.9,0a3.79,3.79,0,0,0-1.23.63l-.07,0,0,0,.07-.08.14-.15.29-.3a27.22,27.22,0,0,0,3.9-5.46,33.89,33.89,0,0,0,2.61-6.41,42.75,42.75,0,0,0,1.45-7c.16-1.2.25-2.42.33-3.62,0-.6.05-1.21.06-1.79v-2.12a7.09,7.09,0,0,1,14.17-.6Z" style="fill:#7f3e3b"></path><path d="M378.62,210.31s10.11,6.64,13.84,24.54c3,14.15,1,35.84-1.78,65.34,16.4,29.48,2.35,100.73,2.35,100.73h-8.91c.09-2.27-8.7-71.46-14.74-102.08-5.74-29.16-20.91-84.66-20.91-84.66Z" style="fill:#263238"></path><path d="M382.66,410.61s1.49-2.34,1.45-10c0,0,5.33-1.35,8.92.32-.28,5.29-.71,10.4-.71,10.4Z" style="fill:#7f3e3b"></path><path d="M393,407.77H382.69a.91.91,0,0,0-.59.21,47.15,47.15,0,0,1-15.48,6.39l-.51,1.87h26.13a2.27,2.27,0,0,0,2.24-2.68,28.92,28.92,0,0,1-.54-4.83A1,1,0,0,0,393,407.77Z" style="fill:#2196F3"></path><path d="M323.66,176.92c1,3.83-3.23,14.05,5.38,17.64,2.53,7.62,5.33,16.66,11.47,28.4l38.11-12.65c-6.5-13.1-6.5-20-6.55-46a10.15,10.15,0,0,0-11.23-10.08c-1.6.17-3.29.39-5,.67A126.32,126.32,0,0,0,338,158.65c-1.89.58-3.83,1.24-5.68,1.91A13.77,13.77,0,0,0,323.66,176.92Z" style="fill:#2196F3"></path><path d="M338,158.65s-8.53,8.42,1.27,21.15c2.93-10.71,16.57-24.91,16.57-24.91Z" style="fill:#fff;opacity:0.30000000000000004"></path><path d="M349.83,135.17c.09,6,1.18,16.73,6,19.72,0,0-11.1,8.05-17.33,18.39-5-7.13-.51-14.63-.51-14.63,6.08-2.88,4.91-7.6,2.86-11.82Z" style="fill:#7f3e3b"></path><path d="M363.73,164.87h0l8.36,4.66v0l.11,11.54h0c-3.78-4.13-7.91-11.7-8.46-16.11,0,0,0-.07,0-.11Z" style="opacity:0.2"></path><path d="M346.17,139.93l-5.32,6.89a18.66,18.66,0,0,1,1.22,3.05c2.37-.86,5.17-4.26,4.89-6.87A8.59,8.59,0,0,0,346.17,139.93Z" style="opacity:0.2"></path><path d="M353.67,123.36c-.27,9.81-.18,14-4.87,19.15-7.05,7.79-18.8,5.29-21.41-4.41-2.34-8.73-1.5-23.3,7.77-27.5S354,113.56,353.67,123.36Z" style="fill:#7f3e3b"></path><path d="M346.35,112.57a62.09,62.09,0,0,1-23.12,4.56S343.34,95.38,346.35,112.57Z" style="fill:#263238"></path><path d="M347,108.08c-5,4.69-6.58,18.1,6.2,20.81C359.11,125.82,367.47,104.22,347,108.08Z" style="fill:#263238"></path><path d="M339.85,126.38c0,.8-.37,1.46-.89,1.47s-1-.61-1-1.41.37-1.46.89-1.47S339.83,125.58,339.85,126.38Z" style="fill:#263238"></path><path d="M330.06,126.84c0,.79-.38,1.45-.9,1.47s-1-.62-1-1.41.38-1.46.9-1.48S330,126,330.06,126.84Z" style="fill:#263238"></path><path d="M329.3,125.46l-1.93-.49S328.4,126.43,329.3,125.46Z" style="fill:#263238"></path><path d="M332.83,127.66a21.11,21.11,0,0,1-2.68,5.18,3.42,3.42,0,0,0,2.86.44Z" style="fill:#630f0f"></path><path d="M337.69,136.47a6.82,6.82,0,0,1-1.33.16.22.22,0,0,1-.24-.22.24.24,0,0,1,.22-.25,6.28,6.28,0,0,0,5.07-2.63.23.23,0,1,1,.4.24A6.52,6.52,0,0,1,337.69,136.47Z" style="fill:#263238"></path><path d="M355.89,129.17a6.33,6.33,0,0,1-3.07,4.17c-2,1-3.56-1.08-3.45-3.58.09-2.25,1.25-5.49,3.48-5.48S356.43,126.86,355.89,129.17Z" style="fill:#7f3e3b"></path><path d="M341.45,120.84a.45.45,0,0,1-.33-.16,3.74,3.74,0,0,0-3.1-1.35.48.48,0,0,1-.53-.4.47.47,0,0,1,.4-.53,4.65,4.65,0,0,1,3.94,1.67.46.46,0,0,1-.05.66A.44.44,0,0,1,341.45,120.84Z" style="fill:#263238"></path><path d="M326.67,122.48a.44.44,0,0,1-.35-.06.46.46,0,0,1-.15-.64,4.64,4.64,0,0,1,3.61-2.28.46.46,0,0,1,.48.45.46.46,0,0,1-.45.48,3.7,3.7,0,0,0-2.84,1.84A.46.46,0,0,1,326.67,122.48Z" style="fill:#263238"></path><path d="M339.1,125l-1.94-.49S338.19,126,339.1,125Z" style="fill:#263238"></path><path d="M383,208.68l-7.11,1.23,7,9.42s5.38-3.58,7.05-8.08l-1-.88A7.16,7.16,0,0,0,383,208.68Z" style="fill:#7f3e3b"></path><path d="M374.63,217.62l2.65,2.69a3.13,3.13,0,0,0,4.26.2l1.41-1.18-7-9.42L374,214.12A3.14,3.14,0,0,0,374.63,217.62Z" style="fill:#7f3e3b"></path><path d="M368.25,155.69c.92.3,1.59.54,2.36.83s1.47.57,2.2.86c1.45.58,2.88,1.22,4.29,1.88,2.83,1.31,5.58,2.79,8.29,4.38a74.23,74.23,0,0,1,15.18,11.7c.58.59,1.14,1.2,1.69,1.82l.82.94.2.24.37.44a9.55,9.55,0,0,1,.92,1.39,10.31,10.31,0,0,1,1,2.77,11.76,11.76,0,0,1,.22,2.33,15.23,15.23,0,0,1-.5,3.55,27.16,27.16,0,0,1-2,5.2c-.76,1.52-1.59,2.91-2.44,4.26a74.32,74.32,0,0,1-5.51,7.5,81.68,81.68,0,0,1-6.2,6.72,3.55,3.55,0,0,1-5.61-4.22l.06-.11c2.67-5,5.46-10.11,7.56-15.07.53-1.23,1-2.46,1.37-3.63a14.39,14.39,0,0,0,.75-3.13,1.88,1.88,0,0,0,0-.8s-.05,0,0,.15a1.91,1.91,0,0,0,.23.72,2.65,2.65,0,0,0,.3.5l.09.11-.09-.09-.17-.16-.67-.66c-.47-.43-.93-.87-1.42-1.29a73.72,73.72,0,0,0-13.12-8.9c-2.37-1.31-4.83-2.51-7.31-3.66-1.24-.57-2.49-1.12-3.74-1.65l-1.87-.78-1.75-.69-.28-.11a7.1,7.1,0,0,1,4.83-13.34Z" style="fill:#7f3e3b"></path><path d="M324.32,113.23c-1.09.43-.17,5,1.67,5.15,2.19-.87,22.94-5.54,34-3.26,1.54-1.41-.68-6.13-3.41-6.47A69.58,69.58,0,0,0,324.32,113.23Z" style="fill:#2196F3"></path></g><g id="freepik--Device--inject-2"><path d="M268.77,392.93H140.52a8.55,8.55,0,0,1-8.58-8.95l10.73-259.49a9.43,9.43,0,0,1,9.32-8.94H280.24a8.54,8.54,0,0,1,8.58,8.94L278.09,384A9.44,9.44,0,0,1,268.77,392.93Z" style="fill:#2196F3"></path><path d="M268.77,392.93H140.52a8.55,8.55,0,0,1-8.58-8.95l10.73-259.49a9.43,9.43,0,0,1,9.32-8.94H280.24a8.54,8.54,0,0,1,8.58,8.94L278.09,384A9.44,9.44,0,0,1,268.77,392.93Z" style="opacity:0.30000000000000004"></path><rect x="110.82" y="373.03" width="20.91" height="1" transform="translate(-256.96 479.22) rotate(-87.62)" style="fill:#2196F3"></rect><path d="M126.37,394.89a12,12,0,0,1-4.45-4.42l.87-.5a10.84,10.84,0,0,0,4.07,4Z" style="fill:#2196F3"></path><path d="M260.68,392.93H132.43a8.54,8.54,0,0,1-8.58-8.95l10.73-259.49a9.42,9.42,0,0,1,9.31-8.94H272.15a8.53,8.53,0,0,1,8.57,8.94L270,384A9.43,9.43,0,0,1,260.68,392.93Z" style="fill:#2196F3"></path><path d="M132.58,389.09a4.87,4.87,0,0,1-4.9-5.11l10.73-259.49a5.38,5.38,0,0,1,5.32-5.11H272a4.86,4.86,0,0,1,4.9,5.11L266.16,384a5.38,5.38,0,0,1-5.32,5.11Z" style="fill:#fff"></path><path d="M257.84,362h-120a3.24,3.24,0,0,1-3.26-3.41l9.17-221.85a3.58,3.58,0,0,1,3.55-3.41h120a3.24,3.24,0,0,1,3.27,3.41l-9.17,221.85A3.59,3.59,0,0,1,257.84,362Z" style="fill:#2196F3;opacity:0.2"></path><path d="M196.92,384.69a9.23,9.23,0,0,1-9.29-9.68,10.14,10.14,0,0,1,10-9.64,9.23,9.23,0,0,1,9.29,9.69A10.14,10.14,0,0,1,196.92,384.69Zm.74-18a8.85,8.85,0,0,0-8.75,8.41,7.94,7.94,0,0,0,8,8.35,8.85,8.85,0,0,0,8.75-8.4h0a7.94,7.94,0,0,0-8-8.36Z" style="fill:#2196F3;opacity:0.2"></path><ellipse cx="201.15" cy="287.75" rx="48.24" ry="46.29" transform="translate(-143.9 222.94) rotate(-44.41)" style="fill:#2196F3;opacity:0.6000000000000001"></ellipse><path d="M223,299.68l.54-13.21c.51-12.12-8.49-22.43-20.58-22.86a23.47,23.47,0,0,0-24.07,22.32l-.57,13.75a2.54,2.54,0,0,1-.79,1.73L174,304.79a2.58,2.58,0,0,0-.79,1.74h0a2.33,2.33,0,0,0,2.35,2.45H225a2.58,2.58,0,0,0,2.55-2.45h0a2.36,2.36,0,0,0-.65-1.74l-3.24-3.38A2.32,2.32,0,0,1,223,299.68Z" style="fill:#fff"></path><path d="M206.26,256.13a4,4,0,0,1-4,3.81,3.62,3.62,0,0,1-3.64-3.81,4,4,0,0,1,4-3.8A3.62,3.62,0,0,1,206.26,256.13Z" style="fill:#fff"></path><path d="M195.1,312.5a2.06,2.06,0,0,0-2,2.66,7,7,0,0,0,6.69,4.73,7.79,7.79,0,0,0,7.09-4.73,1.9,1.9,0,0,0-1.75-2.66Z" style="fill:#fff"></path></g></svg>
